<mxfile host="app.diagrams.net" modified="2024-06-12T17:52:31.468Z" agent="Mozilla/5.0 (iPad; CPU OS 17_5_1 like Mac OS X) AppleWebKit/605.1.15 (KHTML, like Gecko) Version/17.5 Mobile/15E148 Safari/604.1" version="24.5.4" etag="jErHAFblKvwDtaEPTRmd" type="github">
  <diagram name="Page-1" id="1jLfdf2cFmKKc1BFoKnv">
    <mxGraphModel>
      <root>
        <mxCell id="0" />
        <mxCell id="1" parent="0" />
      </root>
    </mxGraphModel>
  </diagram>
</mxfile>
